<svg width="80" height="80" viewBox="0 0 80 80" fill="none" xmlns="http://www.w3.org/2000/svg">
<g clip-path="url(#clip0)">
<path d="M48.2053 7.90683L54.8 4.27616L56.8947 11.5055C57.0762 12.1331 57.4739 12.6762 58.0173 13.0388C58.5604 13.4022 59.2145 13.5619 59.864 13.4895L67.344 12.6588L66.5133 20.1388C66.441 20.7883 66.6006 21.4424 66.964 21.9855C67.3266 22.5289 67.8697 22.9266 68.4973 23.1082L75.724 25.2002L72.0933 31.7948C71.7776 32.3671 71.6746 33.0326 71.8027 33.6735C71.9306 34.3142 72.2805 34.8893 72.7907 35.2975L78.6667 40.0002L72.7907 44.7015C72.2805 45.1097 71.9306 45.6848 71.8027 46.3255C71.6746 46.9664 71.7776 47.6319 72.0933 48.2042L75.724 54.8002L68.4947 56.8948C67.8671 57.0764 67.3239 57.4741 66.9613 58.0175C66.5979 58.5606 66.4383 59.2147 66.5107 59.8642L67.3413 67.3442L59.8613 66.5135C59.2119 66.4411 58.5578 66.6008 58.0147 66.9642C57.4712 67.3268 57.0735 67.8699 56.892 68.4975L54.8 75.7242L48.2053 72.0935C47.6331 71.7778 46.9676 71.6748 46.3267 71.8028C45.6859 71.9308 45.1109 72.2806 44.7027 72.7908L40 78.6668L35.2987 72.7908C34.8905 72.2806 34.3154 71.9308 33.6747 71.8028C33.0338 71.6748 32.3682 71.7778 31.796 72.0935L25.2 75.7242L23.1053 68.4948C22.9238 67.8672 22.5261 67.3241 21.9827 66.9615C21.4396 66.5981 20.7854 66.4385 20.136 66.5108L12.656 67.3415L13.4867 59.8615C13.559 59.2121 13.3994 58.5579 13.036 58.0148C12.6734 57.4714 12.1302 57.0737 11.5027 56.8922L4.276 54.8002L7.90666 48.2055C8.22241 47.6333 8.32538 46.9677 8.19733 46.3268C8.06938 45.6861 7.71952 45.111 7.20933 44.7028L1.33333 40.0002L7.20933 35.2988C7.71952 34.8906 8.06938 34.3156 8.19733 33.6748C8.32538 33.0339 8.22241 32.3684 7.90666 31.7962L4.276 25.2002L11.5053 23.1055C12.1329 22.924 12.6761 22.5263 13.0387 21.9828C13.4021 21.4397 13.5617 20.7856 13.4893 20.1362L12.6587 12.6562L20.1387 13.4868C20.7881 13.5592 21.4422 13.3996 21.9853 13.0362C22.5288 12.6736 22.9265 12.1304 23.108 11.5028L25.2 4.27616L31.7947 7.90683C32.3669 8.22257 33.0324 8.32555 33.6733 8.1975C34.3141 8.06955 34.8891 7.71969 35.2973 7.2095L40 1.3335L44.7013 7.2095C45.1095 7.71969 45.6846 8.06955 46.3253 8.1975C46.9667 8.32587 47.6327 8.22289 48.2053 7.90683V7.90683Z" fill="#D8D8D8"/>
<path d="M71.8027 46.3269C71.9306 45.6862 72.2805 45.1111 72.7907 44.7029L78.6667 40.0003L72.7907 35.2989C72.2805 34.8907 71.9306 34.3157 71.8027 33.6749C71.6746 33.034 71.7776 32.3685 72.0933 31.7963L75.7227 25.2003L68.4947 23.1056C67.8671 22.924 67.3239 22.5264 66.9613 21.9829C66.5979 21.4398 66.4383 20.7857 66.5107 20.1363L67.3413 12.6562L63.292 13.1056L62.5107 20.1336C62.4383 20.783 62.5979 21.4371 62.9613 21.9803C63.3239 22.5237 63.8671 22.9214 64.4947 23.1029L71.7227 25.2003L68.0933 31.7949C67.7776 32.3672 67.6746 33.0327 67.8027 33.6736C67.9306 34.3143 68.2805 34.8894 68.7907 35.2976L74.6667 40.0003L68.7907 44.7016C68.2805 45.1098 67.9306 45.6848 67.8027 46.3256C67.6746 46.9665 67.7776 47.632 68.0933 48.2043L71.7227 54.8002L64.4947 56.8949C63.8671 57.0765 63.3239 57.4741 62.9613 58.0176C62.5979 58.5607 62.4383 59.2148 62.5107 59.8642L63.292 66.8949L67.3413 67.3443L66.5107 59.8642C66.4383 59.2148 66.5979 58.5607 66.9613 58.0176C67.3239 57.4741 67.8671 57.0765 68.4947 56.8949L75.7227 54.8002L72.0933 48.2056C71.7776 47.6333 71.6746 46.9678 71.8027 46.3269V46.3269Z" fill="#C1C1C1"/>
<path d="M52.892 11.5055C53.0735 12.133 53.4712 12.6762 54.0147 13.0388C54.5578 13.4022 55.2119 13.5618 55.8613 13.4895L58.3347 13.2148C58.2241 13.1635 58.1172 13.1047 58.0147 13.0388C57.4712 12.6762 57.0735 12.133 56.892 11.5055L54.8 4.27612L51.348 6.17612L52.892 11.5055Z" fill="#C1C1C1"/>
<path d="M40.7013 7.2095C41.1095 7.71969 41.6846 8.06955 42.3253 8.1975C42.9662 8.32555 43.6318 8.22257 44.204 7.90683L44.9653 7.48816C44.8697 7.40195 44.7806 7.30881 44.6986 7.2095L40 1.3335L38 3.8335L40.7013 7.2095Z" fill="#C1C1C1"/>
<path d="M44.2053 72.0933C43.6331 71.7776 42.9676 71.6746 42.3267 71.8026C41.6859 71.9306 41.1108 72.2805 40.7027 72.7906L38 76.1667L40 78.6667L44.7013 72.7906C44.7832 72.6913 44.8724 72.5982 44.968 72.512L44.2053 72.0933Z" fill="#C1C1C1"/>
<path d="M55.8667 66.5109C55.2172 66.4386 54.5631 66.5982 54.02 66.9616C53.4765 67.3242 53.0789 67.8673 52.8973 68.4949L51.3533 73.8283L54.8 75.7229L56.8947 68.4949C57.0762 67.8673 57.4739 67.3242 58.0173 66.9616C58.1199 66.8957 58.2268 66.8369 58.3373 66.7856L55.8667 66.5109Z" fill="#C1C1C1"/>
<path d="M40 66.6668C54.7276 66.6668 66.6667 54.7278 66.6667 40.0002C66.6667 25.2726 54.7276 13.3335 40 13.3335C25.2724 13.3335 13.3333 25.2726 13.3333 40.0002C13.3333 54.7278 25.2724 66.6668 40 66.6668Z" fill="#F1F1F1"/>
<path d="M40 13.3335C39.3253 13.3335 38.6667 13.3855 38 13.4348C51.9074 14.4689 62.6634 26.0543 62.6634 40.0002C62.6634 53.946 51.9074 65.5314 38 66.5655C38.6667 66.6148 39.3253 66.6668 40 66.6668C54.7276 66.6668 66.6667 54.7278 66.6667 40.0002C66.6667 25.2726 54.7276 13.3335 40 13.3335Z" fill="#C0C0C0"/>
<path d="M27.108 11.5055L28.652 6.17212L25.2 4.27612L23.108 11.5055C22.8896 12.2531 22.3657 12.8739 21.6653 13.2148L24.1387 13.4895C25.4795 13.6393 26.7333 12.8015 27.108 11.5055V11.5055Z" fill="white"/>
<path d="M27.108 68.4947C26.7325 67.1968 25.4759 66.3587 24.1333 66.5107L21.66 66.7853C22.3609 67.1256 22.885 67.7466 23.1027 68.4947L25.2 75.7227L28.6493 73.824L27.108 68.4947Z" fill="white"/>
<path d="M12.6587 67.3416L16.708 66.8923L17.4893 59.8616C17.6392 58.5208 16.8014 57.267 15.5053 56.8923L8.27733 54.8003L11.9067 48.2056C12.5577 47.0235 12.2633 45.5444 11.2093 44.7016L5.33333 40.0003L11.2093 35.2989C12.2609 34.4547 12.5549 32.9775 11.9067 31.7949L8.27733 25.2003L15.5053 23.1056C16.8022 22.7303 17.64 21.4752 17.4893 20.1336L16.708 13.1029L12.6587 12.6589L13.4893 20.1389C13.6386 21.4796 12.8011 22.7331 11.5053 23.1083L4.27733 25.2003L7.90666 31.7949C8.55485 32.9775 8.26087 34.4547 7.20933 35.2989L1.33333 40.0003L7.20933 44.7016C8.26335 45.5444 8.55771 47.0235 7.90666 48.2056L4.27733 54.8003L11.5053 56.8949C12.8025 57.2698 13.6405 58.5252 13.4893 59.8669L12.6587 67.3416Z" fill="white"/>
<path d="M73.624 34.2575C73.0754 33.821 72.9221 33.0523 73.2613 32.4388L76.892 25.8468C77.0874 25.4915 77.1105 25.0667 76.9549 24.6923C76.7992 24.318 76.4817 24.0348 76.092 23.9228L68.8627 21.8281C68.1904 21.6322 67.7562 20.9815 67.8333 20.2855L68.6667 12.8001C68.7111 12.3977 68.5703 11.997 68.284 11.7108C67.9993 11.4259 67.6 11.2869 67.2 11.3335L59.72 12.1655C59.0239 12.2414 58.3736 11.8069 58.1773 11.1348L56.0773 3.90545C55.9654 3.51579 55.6822 3.19826 55.3078 3.0426C54.9334 2.88694 54.5086 2.91007 54.1533 3.10545L47.5613 6.73879C46.9479 7.07659 46.1804 6.9241 45.7427 6.37745L41.0413 0.500118C40.779 0.199127 40.3993 0.0263672 40 0.0263672C39.6007 0.0263672 39.221 0.199127 38.9587 0.500118L34.2573 6.37745C33.8193 6.9236 33.0522 7.07602 32.4387 6.73879L25.8467 3.10945C25.4914 2.91407 25.0666 2.89094 24.6922 3.0466C24.3179 3.20226 24.0347 3.51979 23.9227 3.90945L21.828 11.1348C21.6317 11.8069 20.9814 12.2414 20.2853 12.1655L12.8 11.3335C12.3995 11.2909 12.0012 11.4317 11.7164 11.7165C11.4316 12.0013 11.2908 12.3996 11.3333 12.8001L12.1653 20.2801C12.2413 20.9762 11.8068 21.6265 11.1347 21.8228L3.90533 23.9228C3.51567 24.0348 3.19814 24.318 3.04248 24.6923C2.88682 25.0667 2.90995 25.4915 3.10533 25.8468L6.73466 32.4375C7.07265 33.0513 6.92018 33.8193 6.37333 34.2575L0.499996 38.9588C0.183579 39.2118 -0.000629425 39.595 -0.000629425 40.0001C-0.000629425 40.4053 0.183579 40.7884 0.499996 41.0415L6.37733 45.7428C6.92348 46.1808 7.07589 46.9479 6.73866 47.5615L3.10933 54.1535C2.91395 54.5087 2.89082 54.9336 3.04648 55.3079C3.20214 55.6823 3.51967 55.9655 3.90933 56.0775L11.1387 58.1721C11.8108 58.3684 12.2453 59.0187 12.1693 59.7148L11.3333 67.2001C11.2908 67.6007 11.4316 67.9989 11.7164 68.2837C12.0012 68.5685 12.3995 68.7093 12.8 68.6668L20.28 67.8348C20.6171 67.7999 20.9558 67.8829 21.2387 68.0695C21.5219 68.2586 21.7288 68.5421 21.8227 68.8695L23.9173 76.0988C24.0293 76.4885 24.3125 76.806 24.6869 76.9617C25.0612 77.1173 25.4861 77.0942 25.8413 76.8988L32.432 73.2695C33.0458 72.9315 33.8138 73.084 34.252 73.6308L38.9533 79.5081C39.2064 79.8246 39.5895 80.0088 39.9947 80.0088C40.3998 80.0088 40.783 79.8246 41.036 79.5081L45.7373 73.6308C46.1754 73.0847 46.9425 72.9322 47.556 73.2695L54.148 76.8988C54.5033 77.0942 54.9281 77.1173 55.3025 76.9617C55.6768 76.806 55.96 76.4885 56.072 76.0988L58.1667 68.8695C58.2605 68.5421 58.4675 68.2586 58.7507 68.0695C59.0339 67.8838 59.3723 67.8009 59.7093 67.8348L67.1893 68.6668C67.5899 68.7093 67.9881 68.5685 68.2729 68.2837C68.5577 67.9989 68.6985 67.6007 68.656 67.2001L67.8253 59.7215C67.7475 59.025 68.1818 58.3735 68.8547 58.1775L76.084 56.0828C76.4737 55.9708 76.7912 55.6876 76.9469 55.3133C77.1025 54.9389 77.0794 54.5141 76.884 54.1588L73.26 47.5601C72.9218 46.9467 73.0757 46.1787 73.624 45.7428L79.5 41.0415C79.8164 40.7884 80.0006 40.4053 80.0006 40.0001C80.0006 39.595 79.8164 39.2118 79.5 38.9588L73.624 34.2575ZM71.9573 43.6601C70.3966 44.9079 69.9609 47.0981 70.9253 48.8481L73.752 53.9801L68.124 55.6108C66.2071 56.17 64.9695 58.0262 65.1907 60.0108L65.8373 65.8335L60.0147 65.1868C58.0301 64.9657 56.1738 66.2032 55.6147 68.1201L53.984 73.7468L48.852 70.9215C47.102 69.9571 44.9117 70.3927 43.664 71.9535L40 76.5335L36.34 71.9588C35.7373 71.203 34.8875 70.6837 33.94 70.4921C33.6765 70.4402 33.4086 70.4138 33.14 70.4135C32.4468 70.4135 31.7647 70.5887 31.1573 70.9228L26.0253 73.7481L24.3947 68.1215C23.8355 66.2045 21.9792 64.967 19.9947 65.1881L14.172 65.8348L14.8187 60.0121C15.0398 58.0276 13.8023 56.1713 11.8853 55.6121L6.25866 53.9815L9.084 48.8495C10.0484 47.0994 9.61273 44.9092 8.052 43.6615L3.46666 40.0001L8.04133 36.3401C9.60206 35.0924 10.0377 32.9022 9.07333 31.1521L6.24933 26.0201L11.876 24.3895C13.7929 23.8303 15.0305 21.974 14.8093 19.9895L14.1627 14.1668L19.9853 14.8135C21.9699 15.0346 23.8262 13.7971 24.3853 11.8801L26.016 6.25345L31.148 9.07879C32.898 10.0432 35.0883 9.60752 36.336 8.04679L40 3.46679L43.66 8.04145C44.9077 9.60219 47.098 10.0379 48.848 9.07345L53.98 6.24812L55.6107 11.8748C56.1698 13.7917 58.0261 15.0293 60.0107 14.8081L65.8333 14.1615L65.1867 19.9855C64.9655 21.97 66.2031 23.8263 68.12 24.3855L73.748 26.0161L70.9333 31.1508C69.9679 32.9008 70.403 35.0919 71.964 36.3401L76.5333 40.0001L71.9573 43.6601Z" fill="#212121"/>
<path d="M40 12C24.536 12 12 24.536 12 40C12 55.464 24.536 68 40 68C55.464 68 68 55.464 68 40C67.9831 24.543 55.457 12.0169 40 12ZM40 65.3333C26.0088 65.3333 14.6667 53.9912 14.6667 40C14.6667 26.0088 26.0088 14.6667 40 14.6667C53.9912 14.6667 65.3333 26.0088 65.3333 40C65.3179 53.9848 53.9848 65.3179 40 65.3333Z" fill="#212121"/>
<path d="M40 17.3335C39.0533 17.3331 38.1074 17.3919 37.168 17.5095C36.4705 17.5982 35.9618 18.2133 36.0055 18.915C36.0492 19.6167 36.6303 20.1639 37.3333 20.1655C37.3891 20.1659 37.4448 20.1623 37.5 20.1548C38.3293 20.0518 39.1643 20.0001 40 20.0002C40.7364 20.0002 41.3333 19.4032 41.3333 18.6668C41.3333 17.9305 40.7364 17.3335 40 17.3335V17.3335Z" fill="#212121"/>
<path d="M31.5 18.9815C22.9201 22.4268 17.3073 30.7544 17.3333 40.0002C17.3333 40.7365 17.9303 41.3335 18.6667 41.3335C19.403 41.3335 20 40.7365 20 40.0002C19.9768 31.8419 24.9293 24.4937 32.5 21.4535C33.1775 21.1741 33.5025 20.4002 33.2276 19.7209C32.9528 19.0415 32.1812 18.7113 31.5 18.9815V18.9815Z" fill="#212121"/>
</g>
<defs>
<clipPath id="clip0">
<rect width="80" height="80" fill="white"/>
</clipPath>
</defs>
</svg>
